# xmcd
#
# Track frame offsets:
#	150
#	10860
#	18593
#	30533
#	41243
#	49036
#	59274
#	71867
#	79330
#	90925
#	102348
#
# Disc length: 1515 seconds
#
# Revision: 1
# Processed by: cddbd v1.5.2PL0 Copyright (c) Steve Scherf et al.
# Submitted via: audiograbber 1.83.01
#
DISCID=8a05e90b
DTITLE=Jim Reeves - It's Nothing To Me
DYEAR=1977
DGENRE=Country
TTITLE0=It's Nothing To Me
TTITLE1=You Are My Love
TTITLE2=The Talking Walls
TTITLE3=Little Ole You
TTITLE4=Trying To Forget
TTITLE5=The World You Left Behind
TTITLE6=Crying Is My Fovorite Mood
TTITLE7=Gypsy Feet
TTITLE8=Once Upon A Time
TTITLE9=There's That Smile Again
TTITLE10=Deep Dark Water
EXTD=
EXTT0=
EXTT1=
EXTT2=
EXTT3=
EXTT4=
EXTT5=
EXTT6=
EXTT7=
EXTT8=
EXTT9=
EXTT10=
PLAYORDER=
